:SAMPLES-PER-SECOND 30
:FULLY-SPECIFIED
:DEGREES
140
root  27.4376 37.6453 4.48434 174.93 -20.229 178.751
RightUpLeg  4.17854 -9.80985 -9.69764
RightLeg  29.8659 -12.1584 -7.69606
RightFoot  -17.2232 1.09572 23.3099
RightToes  -5.8209e-011 0 -3.6325e-017
Spine  13.3155 2.58485 -2.71193
Spine1  -25.8275 3.03308 14.0715
HEad  -0.960098 -0.00656557 -5.89628
LeftShoulder1  0.0270701 3.72378 26.743
LeftArm  -66.434 -23.1286 0.803258
LeftForeArm  2.20985 -69.8109 -33.6004
LeftHand  -1.92081 -2.5949 27.7124
RightShoulder  0.921272 -7.43731 -35.8445
RightArm  -77.3213 30.9504 11.4269
RightForeArm  53.087 78.5937 77.9302
RightHand  -3.12634 7.61477 -27.6952
LeftUpLeg  6.65657 -7.61496 9.27033
LeftLeg  32.3122 10.3851 7.36776
LeftFoot  -9.4712 0.424847 -22.3256
LeftToes  6.82088e-011 -2.45093e-011 5.71991e-013
141
root  27.3223 38.0489 3.59017 176.057 -20.3887 179.775
RightUpLeg  6.05877 -11.5585 -8.87746
RightLeg  25.3382 -11.6459 -6.18402
RightFoot  -14.1598 0.484987 23.4282
RightToes  -5.8209e-011 0 -3.6325e-017
Spine  11.2724 4.70528 -2.10287
Spine1  -28.2136 5.21128 11.9825
HEad  -4.45117 -4.75177 -5.21301
LeftShoulder1  0.852769 9.18137 26.9022
LeftArm  -72.3363 -15.7223 2.19959
LeftForeArm  15.1215 -75.0833 -50.4896
LeftHand  -1.5356 -1.91877 24.3733
RightShoulder  1.61602 -9.85457 -37.8297
RightArm  -85.3941 16.6823 4.08581
RightForeArm  67.318 78.2261 101.95
RightHand  -3.13087 7.56756 -27.819
LeftUpLeg  8.59789 -8.13492 10.5223
LeftLeg  27.2705 11.5938 6.77987
LeftFoot  -6.78191 0.957528 -22.6812
LeftToes  6.82088e-011 -2.45093e-011 5.71991e-013
142
root  27.2348 38.5127 2.74856 177.293 -22.0158 -179.902
RightUpLeg  8.43349 -12.1758 -8.22887
RightLeg  20.4012 -12.8851 -5.2472
RightFoot  -10.1857 -0.321009 24.2856
RightToes  -5.8209e-011 0 -3.6325e-017
Spine  8.23247 5.89671 -0.520053
Spine1  -29.8831 6.25323 7.10598
HEad  -4.61704 -10.0699 -3.972
LeftShoulder1  0.923064 11.252 23.0601
LeftArm  -79.2639 -14.0575 1.45864
LeftForeArm  52.5362 -78.1096 -90.4271
LeftHand  -1.37673 -1.62842 22.7472
RightShoulder  2.4578 -13.1576 -37.9156
RightArm  -90.5425 7.80545 1.52324
RightForeArm  82.955 75.4887 125.184
RightHand  -3.52256 7.93746 -30.2836
LeftUpLeg  9.24163 -8.29914 11.9461
LeftLeg  23.1131 9.83788 4.90652
LeftFoot  -2.22667 1.9007 -23.3825
LeftToes  6.82088e-011 -2.45093e-011 5.71991e-013
143
root  27.1911 39.011 2.04621 178.198 -24.455 179.169
RightUpLeg  10.9597 -10.8684 -8.08061
RightLeg  16.4814 -17.3091 -5.16804
RightFoot  -5.60293 -1.31346 25.0942
RightToes  -5.8209e-011 0 -3.6325e-017
Spine  4.05751 5.38031 0.488704
Spine1  -28.5542 5.45178 1.92279
HEad  -3.35918 -13.3974 -2.81096
LeftShoulder1  0.552189 11.2086 17.7718
LeftArm  -87.4667 -15.9384 0.563656
LeftForeArm  98.1575 -73.155 -137.019
LeftHand  -1.1176 -1.07982 20.0129
RightShoulder  2.90806 -16.4086 -34.7141
RightArm  -98.9547 9.2102 4.00582
RightForeArm  107.812 67.6536 148.739
RightHand  -3.90342 7.91364 -33.4411
LeftUpLeg  9.54453 -7.73101 12.3758
LeftLeg  19.7468 7.97442 3.46032
LeftFoot  3.81045 3.07415 -23.0586
LeftToes  6.82088e-011 -2.45093e-011 5.71991e-013
144
root  27.1534 39.4828 1.53002 178.242 -25.4951 177.481
RightUpLeg  13.2502 -10.2262 -9.095
RightLeg  14.294 -20.6084 -5.45993
RightFoot  -1.14532 -2.27104 25.0206
RightToes  -5.8209e-011 0 -3.6325e-017
Spine  -0.53788 4.1635 1.23339
Spine1  -24.408 4.19275 -2.92992
HEad  -2.82273 -14.6163 -1.63981
LeftShoulder1  0.362481 10.7035 15.365
LeftArm  -93.2367 -20.6905 -1.11926
LeftForeArm  107.63 -69.7357 -146.659
LeftHand  -0.870394 -0.288603 17.9108
RightShoulder  2.02999 -15.9471 -27.5715
RightArm  -106.467 16.9977 9.7706
RightForeArm  124.617 58.5155 160.642
RightHand  -4.04684 7.92 -34.5547
LeftUpLeg  11.1984 -6.30264 11.4496
LeftLeg  16.6385 7.67107 3.01713
LeftFoot  10.5082 4.15458 -21.6453
LeftToes  6.82088e-011 -2.45093e-011 5.71991e-013
145
root  27.085 39.8353 1.11334 177.182 -24.5326 176.04
RightUpLeg  15.5654 -10.3596 -10.9234
RightLeg  13.2079 -20.965 -5.54761
RightFoot  2.38966 -2.98462 24.5671
RightToes  -5.8209e-011 0 -3.6325e-017
Spine  -4.94655 3.79298 1.90049
Spine1  -19.3071 4.03804 -6.62884
HEad  -4.02622 -14.9223 -0.455097
LeftShoulder1  0.357065 8.59978 17.9809
LeftArm  -92.452 -27.6859 -4.14451
LeftForeArm  70.0523 -76.5486 -102.79
LeftHand  -1.07621 -0.559198 20.8589
RightShoulder  0.832791 -11.273 -21.9054
RightArm  -103.66 25.1939 16.8051
RightForeArm  124.65 62.2419 156.044
RightHand  -4.28838 8.33572 -35.4463
LeftUpLeg  14.5056 -3.20452 10.4868
LeftLeg  13.7062 6.95537 3.14331
LeftFoot  16.4126 4.97697 -20.3603
LeftToes  6.82088e-011 -2.45093e-011 5.71991e-013
